<svg xmlns="http://www.w3.org/2000/svg" xml:space="preserve" shape-rendering="geometricPrecision" text-rendering="geometricPrecision" image-rendering="optimizeQuality" fill-rule="evenodd" clip-rule="evenodd" viewBox="0 0 614 621" enable-background="new 0 0 614 621" xmlns:xlink="http://www.w3.org/1999/xlink">
 <g id="Layer_1">
  <metadata id="FutureCorpID_Layer"></metadata>

  <path fill="#85C9E0" d="M224.29,79.74 L117.05,79.74 C133.71,62.85 152.74,48.23 174.14,35.88 C205.18,17.95 237.85,6.74 272.16,2.22 C306.47,-2.3 340.94,0.08 375.56,9.36 C410.19,18.64 441.22,33.81 468.68,54.87 C478.63,62.51 487.95,70.79 496.64,79.74 L389.61,79.74 C380.02,75.56 369.99,72.06 359.51,69.25 C332.83,62.11 306.41,60.25 280.26,63.7 C260.99,66.23 242.34,71.58 224.29,79.74 L224.29,79.74 z"></path>
  <path fill="#85C9E0" d="M468.55,389.83 C484.61,368.9 496.22,345.1 503.37,318.41 C506.17,307.94 508.16,297.5 509.34,287.11 L562.85,194.42 C566.25,206.42 568.77,218.63 570.4,231.06 C574.92,265.37 572.54,299.84 563.26,334.46 C553.98,369.09 538.81,400.12 517.75,427.58 C496.68,455.03 470.63,477.72 439.58,495.64 C418.18,508 396.01,517.17 373.06,523.15 L426.68,430.28 C442.77,418.73 456.72,405.24 468.55,389.83 L468.55,389.83 z"></path>
  <path fill="#85C9E0" d="M76.98,398.48 C59.05,367.44 47.83,334.77 43.32,300.46 C38.8,266.15 41.18,231.68 50.47,197.06 L51.08,194.78 L104.13,286.67 L104.87,292.35 C108.26,318.52 116.87,343.56 130.68,367.48 C144.49,391.4 161.87,411.37 182.83,427.39 L187.39,430.88 L240.44,522.76 L238.16,522.15 C203.53,512.88 172.5,497.71 145.04,476.65 C117.59,455.58 94.9,429.53 76.98,398.48 L76.98,398.48 z"></path>
  <path fill="#76ADC0" d="M409.15,301.19 L490.98,159.46 L450.06,159.46 L306.86,407.49 L163.66,159.46 L122.74,159.46 L204.57,301.19 L163.66,372.06 L-0,88.6 L204.57,88.6 L306.86,265.76 L409.15,88.6 L613.72,88.6 L450.06,372.06 L409.15,301.19 L409.15,301.19 zM184.12,407.49 L225.03,336.63 L306.86,478.36 L388.69,336.63 L429.6,407.49 L306.86,620.09 L184.12,407.49 L184.12,407.49 z"></path>
 </g>
</svg>