<svg xmlns="http://www.w3.org/2000/svg" id="Layer_1" data-name="Layer 1" viewBox="0 0 93.05 119.19"><defs><style>.cls-1{fill:#4c4c4c;}.cls-1,.cls-2{fill-rule:evenodd;}.cls-2{fill:#261a3b;}</style></defs><g id="Layer_1-2" data-name="Layer 1"><path class="cls-1" d="M1.41,37.67a14,14,0,0,1,14-14H77.67a14,14,0,0,1,14,14V103.8a14,14,0,0,1-14,14H15.38a14,14,0,0,1-14-14V37.67ZM3.76,103.8a11.62,11.62,0,0,0,11.62,11.62H77.67A11.61,11.61,0,0,0,89.28,103.8V37.67A11.61,11.61,0,0,0,77.67,26.06H15.38A11.61,11.61,0,0,0,3.76,37.67V103.8Z"></path><path class="cls-2" d="M0,37.67A15.36,15.36,0,0,1,15.38,22.29H77.67A15.36,15.36,0,0,1,93.05,37.67V103.8a15.38,15.38,0,0,1-15.38,15.39H15.38A15.38,15.38,0,0,1,0,103.8V37.67Zm2.83,0V103.8a12.53,12.53,0,0,0,12.55,12.55H77.67A12.55,12.55,0,0,0,90.22,103.8V37.67A12.56,12.56,0,0,0,77.67,25.12H15.38A12.55,12.55,0,0,0,2.83,37.67ZM5.18,103.8A10.21,10.21,0,0,0,15.38,114H77.67a10.21,10.21,0,0,0,10.2-10.2V37.67a10.21,10.21,0,0,0-10.2-10.2H15.38a10.21,10.21,0,0,0-10.2,10.2V103.8Zm-2.83,0V37.67a13,13,0,0,1,13-13H77.67a13,13,0,0,1,13,13V103.8a13,13,0,0,1-13,13H15.38a13,13,0,0,1-13-13Z"></path><path class="cls-2" d="M24.39,26C25.28,17.29,28,10.5,32.25,6a19.33,19.33,0,0,1,14.5-6A17.91,17.91,0,0,1,59.88,5.3c4.15,4.15,7,10.7,8.75,19.91l-5.57,1q-2.25-12-7.19-16.94a12.24,12.24,0,0,0-9.13-3.64A13.75,13.75,0,0,0,36.35,9.93C33,13.48,30.79,19.18,30,26.55L24.39,26Z"></path></g></svg>