<?xml version="1.0" encoding="UTF-8"?> <svg xmlns="http://www.w3.org/2000/svg" id="Layer_1" data-name="Layer 1" viewBox="0 0 100 100"><path d="M41.63,90.94a16.68,16.68,0,0,1-2.12-.17l.29-2a14.28,14.28,0,0,0,1.86.15Zm17.32,0-.08-2a15.54,15.54,0,0,0,1.69-.17l.14,0,.39,2-.17,0A13.26,13.26,0,0,1,59,90.92Zm-2.12,0a14.5,14.5,0,0,1-2.11-.33l.44-2a12.24,12.24,0,0,0,1.83.28Zm-13.06-.07-.25-2a13.39,13.39,0,0,0,1.83-.35l.51,1.93A17.52,17.52,0,0,1,43.77,90.82Zm-6.34-.5a16.57,16.57,0,0,1-2-.71l.79-1.84A14.82,14.82,0,0,0,38,88.4Zm25.71-.17-.62-1.9a14.44,14.44,0,0,0,1.75-.69l.84,1.82A15.76,15.76,0,0,1,63.14,90.15ZM52.67,90l-.46-.19-1.42-.6.78-1.84,1.42.6.39.16Zm-4.8-.21-.74-1.86c.24-.09.47-.19.71-.3s.75-.36,1.11-.51l.75,1.85a9.14,9.14,0,0,0-1,.45C48.4,89.52,48.14,89.64,47.87,89.74ZM33.54,88.67c-.61-.34-1.2-.71-1.77-1.1l1.13-1.65c.52.35,1.06.69,1.62,1ZM67,88.39l-1-1.71c.53-.32,1.06-.68,1.58-1.06l1.19,1.6A18.91,18.91,0,0,1,67,88.39ZM30.1,86.32c-.53-.43-1.05-.89-1.56-1.37l1.38-1.45c.47.45,1,.88,1.44,1.27Zm40.23-.41L69,84.41c.44-.39.84-.77,1.21-1.13l.22-.21,1.38,1.45-.22.21C71.23,85.09,70.8,85.5,70.33,85.91ZM27.09,83.47c-.45-.49-.89-1-1.34-1.56l1.55-1.26c.42.52.85,1,1.27,1.47ZM73.26,83l-1.47-1.35c.44-.47.86-1,1.28-1.47l1.54,1.27C74.17,82,73.72,82.55,73.26,83ZM24.5,80.29c-.4-.55-.8-1.09-1.18-1.64L25,77.5c.37.54.75,1.07,1.15,1.6Zm51.38-.41-1.61-1.19c.38-.52.76-1,1.13-1.6l1.66,1.12C76.67,78.79,76.27,79.34,75.88,79.88ZM22.18,77c-.37-.57-.73-1.15-1.08-1.72l1.72-1c.33.55.68,1.11,1,1.66Zm56-.45-1.7-1.07q.51-.81,1-1.68l1.73,1Q78.7,75.67,78.17,76.51Zm1.68-2.85-1.75-1c.32-.58.63-1.16.92-1.73l1.79.9C80.5,72.46,80.19,73.06,79.85,73.66Zm-59.76-.19c-.34-.6-.65-1.2-.95-1.81l1.79-.89c.29.58.59,1.16.91,1.74ZM81.69,70l-1.82-.83c.27-.6.53-1.2.77-1.8l1.85.75C82.24,68.77,82,69.39,81.69,70Zm-63.43-.2c-.28-.63-.54-1.26-.79-1.89l1.86-.73c.24.6.49,1.2.76,1.8Zm64.95-3.6-1.89-.65c.22-.62.41-1.24.59-1.86l1.92.56C83.64,64.92,83.44,65.57,83.21,66.22ZM16.77,66c-.22-.65-.42-1.31-.61-2l1.93-.55c.17.63.37,1.25.57,1.87Zm67.58-3.72-1.94-.46c.15-.64.28-1.27.39-1.91l2,.36Q84.59,61.29,84.35,62.29Zm-68.7-.23c-.08-.36-.16-.72-.23-1.08s-.12-.62-.17-.93l2-.34c.05.29.1.58.16.88s.14.68.22,1Zm69.42-3.82-2-.24c.08-.64.14-1.28.18-1.93l2,.13C85.22,56.88,85.16,57.56,85.07,58.24ZM14.94,58c-.08-.68-.15-1.37-.19-2l2-.14c.05.64.11,1.29.19,1.94Zm70.39-3.87-2,0v-.23c0-.57,0-1.14,0-1.71l2-.09c0,.6,0,1.2,0,1.8Zm-70.66-.23v-.33c0-.58,0-1.16.05-1.73l2,.1c0,.54-.05,1.08-.05,1.63v.31Zm68.48-3.67-.05-.39c0-.52-.12-1-.2-1.54l2-.32c.08.54.16,1.09.21,1.65l0,.38ZM16.87,50l-2-.24c.08-.68.19-1.37.31-2l2,.36C17,48.75,16.94,49.39,16.87,50Zm65.66-3.62c-.15-.62-.32-1.24-.51-1.85l1.91-.6c.21.65.39,1.33.55,2Zm-64.95-.18-1.94-.5c.17-.67.37-1.34.59-2l1.89.64C17.92,45,17.74,45.62,17.58,46.24Zm63.8-3.48c-.24-.6-.51-1.19-.79-1.76l1.8-.88c.3.61.59,1.25.84,1.89ZM18.8,42.59,17,41.82c.26-.63.55-1.27.86-1.88l1.79.89C19.32,41.41,19.05,42,18.8,42.59Zm60.87-3.27c-.32-.55-.67-1.09-1-1.61l1.63-1.16c.4.57.78,1.15,1.13,1.74Zm-59.14-.18-1.72-1,.39-.63c.24-.38.49-.75.74-1.12l1.63,1.16c-.23.33-.46.67-.68,1Zm56.93-3c-.41-.49-.85-1-1.29-1.43l1.44-1.39c.47.49.94,1,1.38,1.54ZM22.74,36l-1.53-1.29c.44-.53.91-1,1.4-1.54L24,34.59C23.58,35,23.15,35.52,22.74,36Zm52-2.59c-.49-.44-1-.85-1.48-1.22l1.2-1.6c.54.41,1.08.85,1.61,1.32Zm-49.35-.14-1.3-1.52c.53-.45,1.08-.88,1.64-1.28l1.17,1.62C26.42,32.47,25.91,32.87,25.43,33.28Zm46.3-2.15c-.41-.25-.83-.48-1.25-.7a2.51,2.51,0,0,1-.65-.47l1.42-1.41a.5.5,0,0,0,.14.1,15.6,15.6,0,0,1,1.38.77ZM28.54,31l-1-1.71q.62-.37,1.26-.72l.57-.29.87,1.8-.51.26C29.31,30.58,28.92,30.8,28.54,31Zm3.4-1.63-.65-1.89a17,17,0,0,1,2-.56l.52,1.93A15.61,15.61,0,0,0,31.94,29.4Zm39.27-1.7-1.9-.61c.2-.63.38-1.26.55-1.88l1.93.53C71.61,26.39,71.42,27,71.21,27.7ZM35.72,26.5l-2-.11a.44.44,0,0,0-.16-.35c-.21-.2-.39-.38-.55-.56l1.46-1.36c.14.15.29.3.44.44a2.48,2.48,0,0,1,.81,1.83Zm36.59-2.71-1.94-.5.51-1.94,1.93.51ZM31.69,23.7a9,9,0,0,1-.87-2.08l1.93-.53a6.86,6.86,0,0,0,.67,1.61Zm41.56-3.92-2-.25a9.93,9.93,0,0,0,.07-1.07,5.69,5.69,0,0,0,0-.7l2-.2c0,.31,0,.61,0,.9A10,10,0,0,1,73.25,19.78Zm-40.74-.4h-2V19.3a8.38,8.38,0,0,1,.08-1.23,7.48,7.48,0,0,1,.17-.91l1.94.48c-.06.25-.1.48-.13.69a7.57,7.57,0,0,0-.06,1Zm38.4-3.31a6.2,6.2,0,0,0-.83-1.51l1.62-1.18a8.47,8.47,0,0,1,1.08,2ZM33.33,16l-1.75-1a8.76,8.76,0,0,1,1.33-1.82l1.45,1.39A6.59,6.59,0,0,0,33.33,16Zm17.15,0a2.48,2.48,0,0,1-1.24-1l-.5-.72-.07-.1L50.3,13l.07.1.53.76a.52.52,0,0,0,.26.21Zm2.73-.58-1.09-1.68c.58-.37,1.19-.73,1.8-1.06l.94,1.77C54.3,14.73,53.74,15.05,53.21,15.4Zm3.37-1.79-.78-1.84c.63-.27,1.29-.52,2-.74l.63,1.9C57.77,13.13,57.16,13.36,56.58,13.61Zm-20.86-.1-1.08-1.68a10.07,10.07,0,0,1,1-.56c.3-.16.61-.3.92-.44l.82,1.82c-.29.13-.57.26-.84.4S36,13.35,35.72,13.51Zm33.17-.22a6.27,6.27,0,0,0-1.48-.91l.83-1.83a8.38,8.38,0,0,1,1.91,1.19Zm-21.4-.42a7.47,7.47,0,0,0-1.44-1L47,10.1a8.74,8.74,0,0,1,1.83,1.28Zm12.73-.47-.48-1.94c.66-.16,1.35-.31,2-.42l.34,2C61.47,12.12,60.83,12.25,60.22,12.4Zm-21.07-.48-.7-1.87q.75-.29,1.56-.54l.43-.12L41,11.32l-.35.1Zm26.6-.05a7.59,7.59,0,0,0-1.27-.11l-.49,0-.13-2,.62,0a9.63,9.63,0,0,1,1.61.14Zm-21.33-.62a6.69,6.69,0,0,0-1.61-.19h-.12l0-2h.16a8.94,8.94,0,0,1,2.07.24Z"></path><path d="M71.87,70.45a36.43,36.43,0,0,1-6.14,8.14,12.37,12.37,0,0,1-6.39,3.74,4.87,4.87,0,0,1-1.2.1,5.94,5.94,0,0,1-2.6-.55l-2.89-1.2a6.94,6.94,0,0,0-2.6-.55,6.74,6.74,0,0,0-2.6.55c-.84.35-1.64.65-2.44,1a6.63,6.63,0,0,1-3.15.75,8.1,8.1,0,0,1-3.79-1,19.59,19.59,0,0,1-6.54-5.94c-3.7-4.89-6.59-10.13-7.79-16.22S23,47.33,26.39,41.94a17,17,0,0,1,6.34-5.84A10,10,0,0,1,37.42,35a14,14,0,0,1,4,.6c2.05.6,4.05,1.25,6.14,1.65.1,0,.2,0,.3,0,.4,0,.4-.3.35-.7a30.18,30.18,0,0,0-8.83-16.77c-.6-.5-.45-.7.1-1a16,16,0,0,1,3-1.2.71.71,0,0,1,.3-.1c.25,0,.4.15.6.45A44.3,44.3,0,0,1,50,31.66a3.67,3.67,0,0,0,.45-1.6c1.7-6.84,6.39-10.78,13.28-11.73.35,0,.6-.1.75-.1.5,0,.45.25.2,1.15A77.54,77.54,0,0,1,62.48,27a19.61,19.61,0,0,1-7.69,9.14c-.4.25-.75.55-1.15.8a44.16,44.16,0,0,0,5.2-1.4A11.71,11.71,0,0,1,62.48,35c3.4,0,6.34,1.55,8.94,4.25a18.43,18.43,0,0,1,5.24,11.33C77.46,57.77,75.51,64.31,71.87,70.45Z"></path></svg> 